<svg version="1.2" xmlns="http://www.w3.org/2000/svg" viewBox="0 0 1024 1024" width="1024" height="1024">
	<style>
		.s0 { fill: #683146 } 
		.s1 { fill: #fff6e2 } 
	</style>
	<path id="Path 0" class="s0" d="m0 512v512h1024v-1024h-1024z"/>
	<path id="Path 0" class="s1" d="m235.54 172.37c-8.72 1.96-22.41 6.59-30.41 10.28-7.99 3.7-21.5 13.07-30 20.84-10.42 9.51-18.18 19.69-23.8 31.24-7.56 15.55-8.33 19.45-8.33 42.31 0 20.6 1.02 27.09 5.63 35.75 3.09 5.81 10.53 15.04 16.52 20.49 6.1 5.54 15.85 11.2 22.14 12.83 6.18 1.61 16.59 2.17 23.13 1.26 6.55-0.91 16.07-4.54 21.15-8.05 5.09-3.52 11.9-10.93 15.12-16.46 3.76-6.46 5.89-14.58 5.95-22.63 0.05-6.91-1.54-15.83-3.52-19.83-1.99-4-7.35-10.54-11.9-14.54-4.56-4-12.54-8.17-17.73-9.26-8.41-1.77-9.26-2.7-7.84-8.59 0.88-3.64 5.13-9.88 9.44-13.88 4.31-4 12.3-8.01 17.76-8.9 5.45-0.9 13.48-0.59 17.84 0.68 5.71 1.66 9.59 5.64 13.85 14.19 3.25 6.53 7.42 19.01 9.25 27.74 2.49 11.81 3.34 58.13 3.34 181.12 0 129.32-0.79 169.56-3.65 185.08-2.01 10.9-5.34 24.59-7.41 30.4-2.06 5.82-6.36 13.27-9.56 16.56-3.2 3.28-9.39 6.68-13.75 7.55-4.36 0.87-10.64 4.13-13.95 7.25-3.48 3.28-5.99 8.72-5.95 12.93 0.04 4 3.05 10.84 6.68 15.2 4.3 5.17 11.46 9.33 20.49 11.93 7.64 2.19 20.43 3.96 28.43 3.92 7.99-0.03 21.97-1.83 31.06-3.99 9.09-2.16 20.99-6.14 26.44-8.85 9.84-4.89 10.02-4.89 23.14 1.16 7.27 3.36 21.55 7.52 31.73 9.25 10.56 1.79 25.31 2.38 34.37 1.37 8.72-0.97 19.89-3.81 24.82-6.29 4.93-2.49 10.58-7.8 12.56-11.8 1.98-4 3.64-10.54 3.69-14.54 0.04-4-2.04-9.25-4.63-11.66-2.59-2.41-9.77-5.68-15.95-7.27-6.93-1.78-13.32-5.68-16.68-10.16-2.99-4-7.24-13.22-9.43-20.49-2.4-7.94-5.04-33.82-6.6-64.78l-2.6-51.56 33.33-49.56c11.56 13.82 19.44 25.57 24.97 35.02 5.53 9.45 14.49 27.3 19.9 39.66 5.42 12.36 15.15 36.75 21.63 54.2 6.47 17.46 16.61 43.63 22.53 58.17 5.92 14.55 14.92 34.77 20 44.95 5.08 10.18 14.33 26.24 20.56 35.7 6.22 9.45 20.66 26.13 32.08 37.08 11.42 10.94 27.9 24.27 36.63 29.62 8.72 5.34 25.38 13.22 37.02 17.5 11.63 4.28 30.67 9.23 42.3 11 11.77 1.79 29.36 2.5 39.66 1.6 10.18-0.89 25.05-3.54 33.05-5.88 8-2.34 19.3-6.68 25.12-9.65 5.82-2.97 15.12-9.08 20.67-13.59 5.56-4.51 14.15-14.14 19.1-21.41 4.95-7.28 10.91-20.95 13.26-30.41 2.73-11.03 3.59-20.97 2.4-27.76-1.02-5.82-3.64-14.15-5.82-18.51-2.18-4.36-6.5-10.72-9.6-14.13-3.1-3.41-9.21-8.04-13.57-10.28-4.56-2.35-14.69-4.08-23.8-4.08-9.11 0-19.24 1.73-23.79 4.08-4.37 2.24-10.46 6.87-13.55 10.28-3.09 3.41-6.96 8.87-8.6 12.15-1.63 3.27-2.97 11.9-2.97 19.17 0 11.75 1.16 14.47 10.48 24.45 5.76 6.18 10.52 13.32 10.58 15.87 0.05 2.54-2.29 5.81-5.2 7.27-2.91 1.45-10.04 2.64-15.86 2.64-5.82 0-13.85-1.25-17.85-2.79-4-1.53-11.85-6-17.45-9.91-5.6-3.92-15.07-13.67-21.04-21.67-5.97-8-15.89-24.06-22.06-35.69-6.16-11.64-15.34-31.86-20.38-44.95-5.05-13.09-18.27-50.57-29.38-83.29-11.11-32.72-24.98-69.6-30.81-81.96-5.84-12.37-15.74-29.62-22-38.34-6.26-8.73-17.18-21.29-24.27-27.92-7.09-6.63-18.25-15.15-24.79-18.94-6.55-3.79-17.25-8.39-23.8-10.24-6.54-1.84-12.19-3.73-12.56-4.19-0.36-0.47 4.33-8.28 10.42-17.37 6.09-9.09 27.93-39.13 48.54-66.76 20.61-27.63 44.26-57.97 52.55-67.43 8.29-9.45 21.25-22.26 28.79-28.46 8.76-7.2 20.31-13.42 31.94-17.19 10.03-3.25 19.91-8.29 21.97-11.19 2.31-3.28 3.18-8.56 2.26-13.88-0.87-5.08-4.71-11.3-9.4-15.21-4.82-4.02-12.86-7.26-20.49-8.26-6.91-0.91-17.92-0.9-24.46 0.02-6.54 0.92-19.34 4.05-28.42 6.94l-16.53 5.27c-25.78-9.61-36.98-11.42-52.02-11.62-18.1-0.23-22.84 0.62-29.09 5.27-4.1 3.04-9.13 8.4-11.16 11.89-2.22 3.84-3.01 9.24-1.98 13.63 1.09 4.62 4.84 8.83 10.3 11.54 4.73 2.36 11.3 6.82 14.61 9.92 4.08 3.82 6 8.63 5.96 14.89-0.03 5.84-3.75 15.6-10.06 26.44-5.51 9.46-17.59 27.9-26.85 40.99-9.26 13.08-33.02 44.87-52.8 70.63l-35.96 46.83c-3.26-56.2-3.54-90.36-2.72-112.18 0.82-21.81 3.2-46.8 5.29-55.52 2.09-8.73 6-18.84 8.7-22.48 2.7-3.63 11.77-10.17 20.16-14.54 8.4-4.36 16.36-10.01 17.7-12.56 1.67-3.17 0.98-7.68-2.2-14.37-2.54-5.36-7.98-12.2-12.09-15.2-6.36-4.65-11.24-5.44-33.05-5.33-21.2 0.11-28.98 1.39-45.41 7.46-10.91 4.02-21.62 7.36-23.8 7.42-2.18 0.05-12.89-3.19-23.8-7.22-16.26-6-25.05-7.47-48.91-8.16-17.93-0.52-35.17 0.52-44.95 2.73z"/>
</svg>